<svg xmlns:dc="http://purl.org/dc/elements/1.1/" xmlns:cc="http://creativecommons.org/ns#" xmlns:rdf="http://www.w3.org/1999/02/22-rdf-syntax-ns#" xmlns:svg="http://www.w3.org/2000/svg" xmlns="http://www.w3.org/2000/svg" xmlns:sodipodi="http://sodipodi.sourceforge.net/DTD/sodipodi-0.dtd" xmlns:inkscape="http://www.inkscape.org/namespaces/inkscape" version="1.1" viewBox="0 0 1279.0173 1598.999" x="0px" y="0px"><path style="" d="m 595.75868,1278.7356 c -20.58946,-1.755 -45.75489,-4.8151 -61.8496,-7.521 C 301.62598,1232.1634 110.37975,1070.0271 33.51665,846.98787 18.88935,804.54256 8.36175,757.36296 2.42145,707.63371 c -3.2286,-27.02836 -3.2286,-109.22166 0,-136.24996 17.7072,-148.2356 78.151,-276.1044 179.5378,-379.8118 104.13727,-106.5209 236.6947,-170.9064 389.42443,-189.1505 27.02833,-3.2286 109.22168,-3.2286 136.25,0 152.72972,18.2441 285.28716,82.6296 389.42442,189.1505 101.3868,103.7074 161.8305,231.5762 179.5378,379.8118 3.2286,27.0283 3.2286,109.2216 0,136.24996 -17.7073,148.23562 -78.151,276.10437 -179.5378,379.81179 -103.93382,106.3128 -236.99797,171.0211 -388.79942,189.071 -15.98523,1.9007 -97.39551,3.5065 -112.5,2.2191 z m 123.75,-519.22689 0,-199.99996 -80,0 -80,0 0,199.99996 0,200 80,0 80,0 0,-200 z m -60.625,-283.23866 c 27.21112,-6.4829 50.31614,-29.5304 57.52959,-57.3863 2.50776,-9.6841 2.50776,-29.0659 0,-38.75 -7.20052,-27.806 -29.7236,-50.3291 -57.52959,-57.5296 -4.22318,-1.0936 -12.68828,-1.9422 -19.375,-1.9422 -22.62,0 -39.72866,7.0915 -55.74197,23.1048 -16.01333,16.0133 -23.10479,33.122 -23.10479,55.742 0,21.4044 6.9681,39.0813 21.36694,54.2045 20.27851,21.2986 47.99361,29.433 76.85482,22.5568 z" fill="#1AD5D5 "/><text x="0" y="1294.1992" fill="#1AD5D5" font-size="5px" font-weight="bold" font-family="'Helvetica Neue', Helvetica, Arial-Unicode, Arial, Sans-serif">Created by Hector</text><text x="0" y="1299.1992" fill="#1AD5D5" font-size="5px" font-weight="bold" font-family="'Helvetica Neue', Helvetica, Arial-Unicode, Arial, Sans-serif">from the Noun Project</text></svg>